<svg width="32" height="32" viewBox="0 0 32 32" fill="none" xmlns="http://www.w3.org/2000/svg">
<path d="M11.5 0C13.4312 0 15 1.56875 15 3.5V28.5C15 30.4312 13.4312 32 11.5 32C9.69375 32 8.20625 30.6313 8.01875 28.8687C7.69375 28.9562 7.35 29 7 29C4.79375 29 3 27.2062 3 25C3 24.5375 3.08125 24.0875 3.225 23.675C1.3375 22.9625 0 21.1375 0 19C0 17.0063 1.16875 15.2812 2.8625 14.4812C2.31875 13.8 2 12.9375 2 12C2 10.0813 3.35 8.48125 5.15 8.0875C5.05 7.74375 5 7.375 5 7C5 5.13125 6.2875 3.55625 8.01875 3.11875C8.20625 1.36875 9.69375 0 11.5 0ZM20.5 0C22.3062 0 23.7875 1.36875 23.9813 3.11875C25.7188 3.55625 27 5.125 27 7C27 7.375 26.95 7.74375 26.85 8.0875C28.65 8.475 30 10.0813 30 12C30 12.9375 29.6813 13.8 29.1375 14.4812C30.8313 15.2812 32 17.0063 32 19C32 21.1375 30.6625 22.9625 28.775 23.675C28.9187 24.0875 29 24.5375 29 25C29 27.2062 27.2062 29 25 29C24.65 29 24.3063 28.9562 23.9813 28.8687C23.7938 30.6313 22.3062 32 20.5 32C18.5688 32 17 30.4312 17 28.5V3.5C17 1.56875 18.5688 0 20.5 0Z" fill="white"/>
</svg>
