<svg width="90" height="100" viewBox="0 0 90 100" fill="none" xmlns="http://www.w3.org/2000/svg">
<rect x="10.5836" y="11.8213" width="65.8147" height="73.4824" fill="white"/>
<path d="M89.1779 0L80.8433 90.2771L44.7327 100L8.62161 90.2771L0.288696 0H89.1779ZM72.3831 18.3564H44.7002H16.5269L17.8743 29.2582H44.7002H46.2071L44.7002 29.8854L18.8547 40.6499L19.7119 51.3061L44.7002 51.3871L58.0933 51.4296L57.2359 65.6382L44.7 69.1676V69.1564L44.5973 69.185L32.4908 66.1288L31.7562 57.3088H31.716H20.4866H20.4471L21.917 74.3357L44.7004 81.0733V81.0612L44.7415 81.0733L67.4029 74.4584L70.3424 40.6499H44.7004H44.6372L44.7004 40.6225L71.2818 29.2582L72.3831 18.3564Z" fill="#33AADD"/>
</svg>
