<svg width="25" height="24" viewBox="0 0 25 24" fill="none" xmlns="http://www.w3.org/2000/svg">
<path d="M14 1.5C14 0.670312 13.3297 0 12.5 0C11.6703 0 11 0.670312 11 1.5V12.8766L7.55938 9.43594C6.97344 8.85 6.02188 8.85 5.43594 9.43594C4.85 10.0219 4.85 10.9734 5.43594 11.5594L11.4359 17.5594C12.0219 18.1453 12.9734 18.1453 13.5594 17.5594L19.5594 11.5594C20.1453 10.9734 20.1453 10.0219 19.5594 9.43594C18.9734 8.85 18.0219 8.85 17.4359 9.43594L14 12.8766V1.5ZM3.5 16.5C1.84531 16.5 0.5 17.8453 0.5 19.5V21C0.5 22.6547 1.84531 24 3.5 24H21.5C23.1547 24 24.5 22.6547 24.5 21V19.5C24.5 17.8453 23.1547 16.5 21.5 16.5H16.7422L14.6188 18.6234C13.4469 19.7953 11.5484 19.7953 10.3766 18.6234L8.25781 16.5H3.5ZM20.75 19.125C21.0484 19.125 21.3345 19.2435 21.5455 19.4545C21.7565 19.6655 21.875 19.9516 21.875 20.25C21.875 20.5484 21.7565 20.8345 21.5455 21.0455C21.3345 21.2565 21.0484 21.375 20.75 21.375C20.4516 21.375 20.1655 21.2565 19.9545 21.0455C19.7435 20.8345 19.625 20.5484 19.625 20.25C19.625 19.9516 19.7435 19.6655 19.9545 19.4545C20.1655 19.2435 20.4516 19.125 20.75 19.125Z" fill="white"/>
</svg>
