<svg width="100" height="100" viewBox="0 0 100 100" fill="none" xmlns="http://www.w3.org/2000/svg">
<g clip-path="url(#clip0_95_36)">
<path fill-rule="evenodd" clip-rule="evenodd" d="M98.1152 45.5443L54.4537 1.88611C51.9411 -0.628705 47.8627 -0.628705 45.3468 1.88611L36.2805 10.9524L47.7815 22.4534C50.4544 21.5504 53.5189 22.1561 55.6497 24.2869C57.7903 26.4308 58.3916 29.5217 57.4667 32.2033L68.5507 43.2874C71.2323 42.3635 74.3265 42.9615 76.4683 45.1066C79.4615 48.0987 79.4615 52.9484 76.4683 55.9427C73.474 58.937 68.6243 58.937 65.6289 55.9427C63.3774 53.689 62.8211 50.382 63.9611 47.6082L53.6242 37.2713L53.6231 64.4735C54.3528 64.8356 55.0418 65.3173 55.6497 65.9229C58.6429 68.9151 58.6429 73.7647 55.6497 76.7612C52.6554 79.7544 47.8035 79.7544 44.8136 76.7612C41.8204 73.7647 41.8204 68.9151 44.8136 65.9229C45.5531 65.1845 46.4089 64.626 47.3218 64.2508V36.7951C46.4089 36.4221 45.5542 35.8669 44.8136 35.123C42.5456 32.8583 42.0003 29.5305 43.1623 26.7457L31.8258 15.4071L1.88828 45.3425C-0.627636 47.8595 -0.627636 51.9378 1.88828 54.4526L45.5498 98.112C48.0635 100.627 52.1408 100.627 54.6578 98.112L98.1152 54.6556C100.63 52.1397 100.63 48.0592 98.1152 45.5443" fill="#DE4C36"/>
</g>
<defs>
<clipPath id="clip0_95_36">
<rect width="100" height="100" fill="white"/>
</clipPath>
</defs>
</svg>
