<svg width="91" height="100" viewBox="0 0 91 100" fill="none" xmlns="http://www.w3.org/2000/svg">
<rect x="12.4618" y="11.8228" width="65.8148" height="73.4825" fill="white"/>
<path fill-rule="evenodd" clip-rule="evenodd" d="M72.4641 30H72.4284H29.3485L30.3787 40H71.439C70.8372 48.76 69.0165 67.3192 68.3484 75.7642L45.286 82.2559V82.2754L45.235 82.2998L22.1574 74.1797L20.5764 55H31.8883L32.689 65.3149L45.2554 70H45.286L57.8321 65.5005L59.1224 50H20.0715C19.8828 47.995 17.4552 21.96 17.0319 20H73.4739C73.1577 23.3 72.8364 26.69 72.4641 30ZM0.288513 0L8.47915 90.7397L45.235 100L82.0878 90.5542L90.2887 0H0.288513Z" fill="#F16529"/>
</svg>
