<svg width="101" height="100" viewBox="0 0 101 100" fill="none" xmlns="http://www.w3.org/2000/svg">
<path d="M0.177917 30C0.177917 13.4315 13.6094 0 30.1779 0H70.1779C86.7465 0 100.178 13.4315 100.178 30V70C100.178 86.5685 86.7465 100 70.1779 100H30.1779C13.6094 100 0.177917 86.5685 0.177917 70V30Z" fill="#F7DF1E"/>
<path d="M26.4716 83.568L34.1239 78.9367C35.6005 81.5543 36.9435 83.7691 40.1649 83.7691C43.2528 83.7691 45.2001 82.5613 45.2001 77.8629V45.9105H54.5974V77.9957C54.5974 87.7289 48.8919 92.1594 40.5677 92.1594C33.0501 92.1594 28.6864 88.266 26.4712 83.5672M59.7017 82.5609L67.3532 78.1309C69.3677 81.4203 71.9856 83.8367 76.6169 83.8367C80.511 83.8367 82.9938 81.8898 82.9938 79.2047C82.9938 75.9828 80.4431 74.8414 76.147 72.9625L73.7981 71.9547C67.0181 69.0691 62.5208 65.4441 62.5208 57.7918C62.5208 50.7434 67.8907 45.373 76.2817 45.373C82.2559 45.373 86.552 47.4543 89.6395 52.8914L82.3224 57.5906C80.711 54.7043 78.9665 53.5633 76.2813 53.5633C73.529 53.5633 71.7837 55.3086 71.7837 57.5906C71.7837 60.4098 73.529 61.5516 77.5563 63.2969L79.9056 64.3035C87.8938 67.7274 92.3911 71.2176 92.3911 79.0707C92.3911 87.5293 85.7458 92.1606 76.8181 92.1606C68.0919 92.1606 62.4532 87.9988 59.7013 82.5613" fill="black"/>
</svg>
