<svg width="24" height="20" viewBox="0 0 24 20" fill="none" xmlns="http://www.w3.org/2000/svg">
<path fill-rule="evenodd" clip-rule="evenodd" d="M6.375 0C2.85419 0 0 2.85419 0 6.375C0 7.93458 0.561472 9.36596 1.49204 10.4736L3.21478 9.02635C2.61204 8.30889 2.25 7.38568 2.25 6.375C2.25 4.09683 4.09683 2.25 6.375 2.25H12.75C15.0282 2.25 16.875 4.09683 16.875 6.375C16.875 8.65317 15.0282 10.5 12.75 10.5V12.75C16.2708 12.75 19.125 9.89581 19.125 6.375C19.125 2.85419 16.2708 0 12.75 0H6.375ZM17.625 17.25H11.25C8.97183 17.25 7.125 15.4032 7.125 13.125C7.125 10.8468 8.97183 9 11.25 9V6.75C7.72919 6.75 4.875 9.60419 4.875 13.125C4.875 16.6458 7.72919 19.5 11.25 19.5H17.625C21.1458 19.5 24 16.6458 24 13.125C24 11.5654 23.4385 10.134 22.5079 9.02635L20.7852 10.4736C21.3879 11.1911 21.75 12.1143 21.75 13.125C21.75 15.4032 19.9032 17.25 17.625 17.25Z" fill="white"/>
</svg>
