<svg width="89" height="100" viewBox="0 0 89 100" fill="none" xmlns="http://www.w3.org/2000/svg">
<path d="M44.8011 100C43.4312 100 42.1525 99.6325 40.9654 98.9893L28.8194 91.7314C26.9931 90.7211 27.9063 90.3537 28.4542 90.1699C30.9201 89.3429 31.3764 89.1592 33.9334 87.6894C34.2074 87.5057 34.573 87.5973 34.847 87.781L44.162 93.3854C44.5271 93.5691 44.9835 93.5691 45.2575 93.3854L81.6963 72.1633C82.0591 71.9796 82.2452 71.6122 82.2452 71.1531V28.8011C82.2452 28.3415 82.0591 27.9741 81.6963 27.7904L45.2575 6.66043C44.8923 6.47671 44.4355 6.47671 44.162 6.66043L7.72406 27.7904C7.35843 27.9741 7.17609 28.4336 7.17609 28.8011V71.1531C7.17609 71.5205 7.35843 71.9796 7.72406 72.1633L17.6782 77.951C23.0662 80.7073 26.4452 77.4919 26.4452 74.2764V32.4756C26.4452 31.9244 26.9015 31.3733 27.5411 31.3733H32.1984C32.7463 31.3733 33.2943 31.8328 33.2943 32.4756V74.2764C33.2943 81.5339 29.3674 85.76 22.5182 85.76C20.418 85.76 18.7741 85.76 14.1164 83.4632L4.52742 77.951C2.15321 76.5732 0.692139 74.0006 0.692139 71.2447V28.8927C0.692139 26.1368 2.15321 23.5647 4.52742 22.1865L40.9654 0.96492C43.2484 -0.32164 46.3534 -0.32164 48.6364 0.96492L85.0758 22.1865C87.4481 23.5647 88.9087 26.1368 88.9087 28.8927V71.2447C88.9087 74.0006 87.4481 76.5732 85.0758 77.951L48.6364 99.173C47.5405 99.6326 46.171 100 44.8011 100Z" fill="#5FA04E"/>
<path d="M56.1756 71.0193C40.2694 71.0193 36.998 63.6171 36.998 57.3251C36.998 56.7699 37.4522 56.2148 38.0882 56.2148H42.8141C43.3594 56.2148 43.814 56.5849 43.814 57.14C44.5407 62.0439 46.6312 64.4495 56.2658 64.4495C63.8992 64.4495 67.172 62.6918 67.172 58.5281C67.172 56.122 66.26 54.3639 54.3558 53.1613C44.45 52.1433 38.2702 49.9228 38.2702 41.8726C38.2702 34.3781 44.45 29.9365 54.8104 29.9365C66.4453 29.9365 72.1691 34.008 72.8959 42.8906C72.8959 43.1679 72.8056 43.4457 72.6251 43.7231C72.4399 43.9081 72.1691 44.0936 71.8936 44.0936H67.077C66.6258 44.0936 66.1698 43.7231 66.0795 43.2607C64.987 38.1717 62.1702 36.5059 54.7197 36.5059C46.3586 36.5059 45.3587 39.467 45.3587 41.6876C45.3587 44.371 46.54 45.2039 57.8096 46.6843C68.9866 48.1646 74.2592 50.2929 74.2592 58.2503C74.2592 66.3927 67.6233 71.0193 56.1756 71.0193Z" fill="#5FA04E"/>
</svg>
