<svg width="98" height="100" viewBox="0 0 98 100" fill="none" xmlns="http://www.w3.org/2000/svg">
<path fill-rule="evenodd" clip-rule="evenodd" d="M96.7356 59.1101C96.1362 57.3761 94.6125 56.1836 92.6596 55.9193C91.7389 55.7949 90.6873 55.868 89.4457 56.142C87.2815 56.6199 85.6735 56.8127 84.4988 56.8622C88.8305 49.3112 92.319 40.7203 94.2839 32.6519C97.4611 19.6058 95.5846 13.7085 93.4508 11.0587C87.8036 4.04576 79.6551 0.349027 69.8863 0.367829C64.6756 0.376552 60.1157 1.46875 57.7402 2.24144C55.5132 1.88056 53.1213 1.69481 50.6142 1.68905C45.9153 1.67937 41.7783 2.76105 38.2606 4.91512C36.2872 4.27858 33.1229 3.38622 29.475 2.83919C20.8952 1.55263 14.0114 2.74357 9.01461 6.37855C2.96384 10.7798 0.23503 18.3186 0.904407 28.7857C1.11674 32.109 3.11763 42.2013 6.17988 51.7567C7.93986 57.2487 9.79854 61.8042 11.7043 65.2972C14.4068 70.2505 17.2652 73.15 20.4431 74.1611C22.2245 74.7274 25.4515 75.0962 28.8007 72.2278C29.2373 72.7416 29.8172 73.2505 30.5845 73.7199C31.5585 74.3156 32.7464 74.7968 33.9296 75.0753C38.1946 76.079 42.1719 75.7578 45.5476 74.2216C45.5768 74.8252 45.601 75.4022 45.6216 75.9003C45.6555 76.7085 45.6886 77.5007 45.7286 78.2414C45.9993 83.2508 46.3944 87.1431 47.4426 89.8556C47.5 90.0051 47.5779 90.2325 47.6601 90.4736C48.1854 92.01 49.0643 94.5817 51.2364 96.5755C53.4862 98.6404 56.1809 99.2461 58.6407 99.2117C59.8744 99.1946 61.0493 99.0165 62.0785 98.7809C65.7479 97.9412 69.9108 96.6815 72.8745 92.3345C75.6764 88.225 76.9809 82.076 77.0983 72.4137C77.1271 72.1403 77.1536 71.8791 77.1792 71.6301C77.1964 71.4621 77.2139 71.2903 77.2317 71.119L77.9061 71.1688L78.0797 71.1781C81.8305 71.2969 86.4027 70.4383 89.1993 69.0918C91.4092 68.0287 98.4842 64.1672 96.7356 59.1101" fill="black"/>
<path fill-rule="evenodd" clip-rule="evenodd" d="M90.3401 60.1871C79.227 62.6408 78.4085 58.878 78.4085 58.878C89.9335 41.2537 94.545 19.0215 90.2246 13.6559C78.4381 -0.980403 58.4878 6.2959 58.1558 6.48222L58.0484 6.50299C55.8402 6.07647 53.3722 5.83837 50.602 5.83161C45.5579 5.81897 41.7521 7.27677 38.88 9.51828C38.88 9.51828 2.91289 -4.71813 5.03783 28.5208C5.48988 35.5922 15.9232 81.9221 27.4036 67.7252C31.5997 62.5339 35.6625 58.1374 35.6625 58.1374C37.7293 59.4694 40.1905 60.1293 42.7572 59.8444L42.9545 59.6721C42.9013 60.3102 42.9383 60.933 43.0622 61.6693C40.1011 65.0714 40.9931 65.6492 34.9978 66.9703C28.9313 68.3086 32.5363 70.4912 34.8779 71.0422C37.7166 71.7104 44.2753 72.6217 48.6115 66.3698L48.4449 67.0786C49.6365 68.0061 50.5362 73.1905 50.4629 77.9024C50.3895 82.6145 50.3418 85.8495 51.3054 88.3624C52.2691 90.8753 53.2734 96.5456 61.1539 94.7422C67.7388 93.2352 71.1104 89.52 71.5016 83.3954C71.7791 79.0412 72.5527 79.6735 72.547 75.7842L73.1347 73.9348C73.7601 68.0289 73.1388 66.1351 77.2201 66.9633L78.2101 67.0364C81.2069 67.1311 85.1179 66.4588 87.4036 65.3576C92.3254 62.9899 95.21 59.1108 90.3397 60.1871L90.3401 60.1871" fill="#336791"/>
<path fill-rule="evenodd" clip-rule="evenodd" d="M41.2745 31.1828C40.2684 31.057 39.3605 31.199 38.9051 31.5537C38.6488 31.7533 38.572 31.9816 38.5527 32.1383C38.5006 32.5532 38.7972 33.0069 38.9786 33.2406C39.4922 33.9021 40.2355 34.3514 40.9662 34.4425C41.0721 34.4557 41.1773 34.4613 41.2818 34.4598C42.4982 34.4429 43.5907 33.4806 43.6784 32.7803C43.7882 31.9032 42.5092 31.3372 41.2745 31.1828" fill="white"/>
<path fill-rule="evenodd" clip-rule="evenodd" d="M74.5468 30.7486L74.5466 30.7486C74.4414 30.0638 73.2174 29.8851 72.0609 30.0622C70.9061 30.2396 69.7911 30.7774 69.8944 31.4638C69.9772 31.9976 70.9552 32.8973 72.0984 32.8812C72.1948 32.8799 72.2922 32.8721 72.3902 32.857C73.1518 32.7407 73.7049 32.2484 73.9669 31.9653C74.3663 31.5343 74.5939 31.0564 74.5468 30.7486" fill="white"/>
<path fill-rule="evenodd" clip-rule="evenodd" d="M94.0452 59.874C93.6024 58.5949 92.229 58.2002 89.963 58.7012C83.2348 60.1874 80.8051 59.2562 80.0033 58.683C85.1373 50.6202 89.3177 40.9027 91.5201 31.8592C92.5636 27.5755 93.1177 23.6031 93.1224 20.3716C93.1282 16.824 92.4882 14.2266 91.2203 12.652C86.1086 6.30391 78.6897 2.96381 69.7654 2.99305C63.6303 3.00928 58.4693 4.65121 57.4706 5.10651C55.3474 4.60967 53.0362 4.31864 50.5247 4.31229C45.9185 4.30176 41.9534 5.4595 38.6889 7.75233C37.25 7.23956 33.5327 6.02092 28.9985 5.35499C21.159 4.20398 14.9567 5.24452 10.5647 8.4485C5.32402 12.2717 2.97367 19.0083 3.57857 28.4709C3.7821 31.6547 5.73316 41.4299 8.72824 50.776C12.6705 63.0768 16.8662 70.0133 21.1991 71.3918C21.7062 71.5532 22.2901 71.663 22.9317 71.6541C24.505 71.6323 26.4239 70.8963 28.3973 68.4558C31.6751 64.3993 34.7407 60.9957 35.871 59.7587C37.579 60.6454 39.4483 61.1275 41.3542 61.1521C41.3582 61.2019 41.364 61.2516 41.3692 61.3012C40.9933 61.7598 40.6853 62.1614 40.4228 62.5044C39.1262 64.1981 38.8563 64.5507 34.6197 65.4846C33.4148 65.7507 30.2138 66.4568 30.1982 68.7074C30.1812 71.1664 34.0407 72.1455 34.4805 72.2488C36.0126 72.6098 37.4859 72.778 38.8886 72.7585C42.3003 72.7109 45.2866 71.5482 47.6558 69.3455C47.7035 78.1105 48.1889 86.7412 49.2776 89.3579C50.1692 91.4997 52.3478 96.7348 58.9984 96.6421C59.9739 96.6285 61.0467 96.5002 62.2248 96.2305C69.1448 94.646 72.1161 91.5366 73.1883 84.7575C73.7621 81.1345 74.7131 72.4884 75.1522 67.8519C76.2197 68.1686 77.5901 68.3014 79.0693 68.2806C82.1543 68.2378 85.7048 67.533 87.9229 66.4658C90.4144 65.2664 94.9004 62.3455 94.0452 59.874V59.874V59.874ZM77.0823 28.8188C77.0782 30.186 76.9073 31.4293 76.7259 32.7274C76.5307 34.1233 76.3287 35.5665 76.2971 37.3157C76.2656 39.0178 76.5026 40.7838 76.732 42.4914C77.1951 45.9407 77.6706 49.492 76.0698 53.0248C75.8071 52.5731 75.5527 52.0798 75.3182 51.5328C75.1064 51.0387 74.6502 50.2466 74.0187 49.1502C71.5608 44.8829 65.8053 34.89 68.623 30.7406C69.4621 29.5052 71.6178 28.2177 77.0823 28.8188V28.8188V28.8188ZM70.1488 5.75602C78.1461 5.82163 84.5117 8.72473 89.0688 14.3842C92.564 18.7252 89.0595 38.7471 78.351 56.1267C78.241 55.9908 78.129 55.8536 78.0131 55.713C77.9669 55.6567 77.9198 55.5995 77.8722 55.5416C80.6363 50.8303 80.0189 46.2155 79.4697 42.1239C79.244 40.4448 79.031 38.8589 79.0588 37.3662C79.0872 35.7835 79.2775 34.4244 79.4613 33.11C79.6877 31.49 79.9173 29.8142 79.8202 27.8434C79.8694 27.636 79.887 27.3913 79.8557 27.1017C79.6514 25.2133 77.4144 19.5853 72.9435 14.5245C70.4982 11.7569 66.9449 8.67071 62.1236 6.62286C64.1789 6.16707 66.9921 5.72958 70.1488 5.75602V5.75602V5.75602ZM26.2491 66.7195C24.0751 69.4085 22.541 68.9203 22.0366 68.76C18.7496 67.714 14.8576 60.8519 11.3585 49.933C8.33078 40.4853 6.50584 30.9681 6.33489 28.2945C5.79449 19.8394 7.76364 13.914 12.1879 10.6832C19.388 5.42545 31.3864 8.34609 36.212 9.84498C36.1438 9.91396 36.0729 9.97876 36.0054 10.0488C28.2329 18.1197 28.6087 31.7192 28.6396 32.5502C28.6433 32.8711 28.6765 33.3249 28.7221 33.9492C28.8895 36.235 29.2009 40.4894 28.5937 45.3209C28.029 49.8104 29.4711 54.1771 32.5496 57.3011C32.8683 57.6244 33.2005 57.9276 33.5433 58.2125C32.2125 59.6778 29.3214 62.9173 26.2491 66.7195V66.7195V66.7195ZM34.5171 55.3625C32.0359 52.8447 30.8759 49.3104 31.3341 45.6653C31.9755 40.5615 31.651 36.1288 31.4768 33.7474C31.4524 33.4142 31.4309 33.1222 31.4172 32.8917C32.5547 31.8548 37.8518 28.921 41.6697 29.7403C43.4123 30.1141 44.4867 31.2819 44.9549 33.3102C47.3783 43.8101 45.4636 48.2271 43.925 51.7764C43.6079 52.5077 43.3083 53.1988 43.0541 53.9132L42.8572 54.4653C42.3585 55.8615 41.8945 57.1594 41.6128 58.3899C39.0129 58.418 36.4682 57.3427 34.5171 55.3625V55.3625V55.3625ZM35.1133 69.5602C34.3516 69.3811 33.6642 69.0611 33.2598 68.7934C33.5922 68.6313 34.1848 68.409 35.2145 68.1819C40.1985 67.0834 40.9601 66.3466 42.616 64.1829C42.9958 63.687 43.4261 63.1246 44.0234 62.4387C44.0236 62.4382 44.0238 62.438 44.024 62.4378C44.9137 61.4136 45.3293 61.5793 46.0832 61.8798C46.6942 62.1228 47.2963 62.8759 47.5479 63.7105C47.6669 64.1046 47.8049 64.8542 47.3958 65.4442C43.943 70.4233 38.8111 70.4312 35.1133 69.5602V69.5602V69.5602ZM61.6084 93.5382C55.5121 94.9331 53.3039 91.8434 51.8278 88.2967C50.875 86.0068 50.2784 75.63 50.4403 64.1594C50.4424 64.0067 50.4187 63.8597 50.3747 63.7218C50.3344 63.4549 50.2744 63.1851 50.1926 62.9139C49.6917 61.2522 48.5089 59.8727 47.1051 59.3136C46.5473 59.0915 45.5234 58.684 44.3045 59.0138C44.5506 57.9354 44.9861 56.7156 45.4582 55.3945L45.6564 54.8387C45.8795 54.2122 46.161 53.5625 46.459 52.875C48.0691 49.1611 50.2741 44.0746 47.6463 32.6889C46.6619 28.4244 43.5444 26.3786 38.8688 26.9286C36.0657 27.2581 33.5135 28.4263 32.2416 29.0935C31.9682 29.2369 31.7181 29.3751 31.4846 29.5098C31.7822 25.195 33.0213 17.1222 38.0031 11.9564C41.1395 8.70401 45.3542 7.06082 50.5174 7.07447C60.6905 7.09992 67.2851 12.229 71.0263 16.5274C74.25 20.2315 76.0199 23.9831 76.7337 26.0097C71.5718 25.5573 68.0801 26.6236 66.338 29.1889C62.5484 34.7692 68.6788 45.4134 71.6252 50.5288C72.1654 51.4664 72.6318 52.2766 72.7798 52.6215C73.7473 54.8773 74.9803 56.3751 75.8806 57.4687C76.1565 57.8037 76.4243 58.1286 76.6283 58.4127C75.0734 58.8846 72.2835 59.9633 72.6112 65.1579C72.4413 67.7692 71.1449 80.0011 70.4604 84.326C69.5566 90.0395 67.4886 92.1919 61.6084 93.5382V93.5382V93.5382ZM86.7252 63.9769C85.1391 64.7402 82.4752 65.3332 79.9389 65.4876C77.1375 65.6579 75.7045 65.2324 75.365 64.9632C75.1623 61.7261 76.3635 61.3708 77.6346 60.9949C77.8343 60.9356 78.0292 60.8781 78.217 60.8095C78.3358 60.9034 78.4656 60.9964 78.6076 61.0873C80.8813 62.5431 84.9022 62.6478 90.5591 61.3981C90.5798 61.3934 90.6006 61.3891 90.6211 61.3846C89.866 62.1106 88.5699 63.0891 86.7252 63.9769V63.9769V63.9769Z" fill="white"/>
</svg>
