<svg width="101" height="100" viewBox="0 0 101 100" fill="none" xmlns="http://www.w3.org/2000/svg">
<g clip-path="url(#clip0_72_21)">
<path d="M50.1546 0.390625C24.8295 0.390627 26.4109 11.3731 26.4109 11.3731L26.4392 22.7509H50.6063V26.167H16.8401C16.8401 26.167 0.634521 24.3292 0.634521 49.8824C0.63452 75.4357 14.7791 74.5295 14.7791 74.5295H23.2206V62.6718C23.2206 62.6718 22.7656 48.5273 37.1393 48.5273H61.1088C61.1088 48.5273 74.5758 48.745 74.5758 35.512V13.6317C74.5758 13.6317 76.6205 0.390625 50.1546 0.390625ZM36.8288 8.04167C39.2332 8.04167 41.1766 9.98504 41.1766 12.3895C41.1766 14.7939 39.2332 16.7373 36.8288 16.7373C34.4243 16.7373 32.4809 14.7939 32.4809 12.3895C32.4809 9.98504 34.4243 8.04167 36.8288 8.04167Z" fill="url(#paint0_linear_72_21)"/>
<path d="M50.8739 99.6304C76.199 99.6304 74.6175 88.6479 74.6175 88.6479L74.5893 77.2702H50.4221V73.854H84.1884C84.1884 73.854 100.394 75.6919 100.394 50.1386C100.394 24.5854 86.2494 25.4915 86.2494 25.4915H77.8078V37.3492C77.8078 37.3492 78.2628 51.4938 63.8891 51.4938H39.9196C39.9196 51.4938 26.4526 51.2761 26.4526 64.509V86.3893C26.4526 86.3893 24.408 99.6304 50.8739 99.6304ZM64.1997 91.9794C61.7952 91.9794 59.8518 90.036 59.8518 87.6316C59.8518 85.2271 61.7952 83.2837 64.1997 83.2837C66.6041 83.2837 68.5475 85.2271 68.5475 87.6316C68.5475 90.036 66.6041 91.9794 64.1997 91.9794Z" fill="url(#paint1_linear_72_21)"/>
</g>
<defs>
<linearGradient id="paint0_linear_72_21" x1="10.2216" y1="9.31698" x2="59.6587" y2="58.2609" gradientUnits="userSpaceOnUse">
<stop stop-color="#387EB8"/>
<stop offset="1" stop-color="#366994"/>
</linearGradient>
<linearGradient id="paint1_linear_72_21" x1="40.5662" y1="40.7455" x2="93.6563" y2="90.9333" gradientUnits="userSpaceOnUse">
<stop stop-color="#FFE052"/>
<stop offset="1" stop-color="#FFC331"/>
</linearGradient>
<clipPath id="clip0_72_21">
<rect width="100" height="100" fill="white" transform="translate(0.634521)"/>
</clipPath>
</defs>
</svg>
