<svg width="116" height="100" viewBox="0 0 116 100" fill="none" xmlns="http://www.w3.org/2000/svg">
<path d="M68.3035 49.907C68.3035 44.3901 63.6908 39.917 58 39.917C52.31 39.917 47.6965 44.3901 47.6965 49.907C47.6965 55.4247 52.31 59.8974 58 59.8974C63.6908 59.8974 68.3035 55.4247 68.3035 49.907Z" fill="#53C1DE"/>
<path fill-rule="evenodd" clip-rule="evenodd" d="M91.463 31.3604C93.6388 22.7876 96.3738 6.8903 86.7323 1.50061C77.1357 -3.86558 64.6476 6.41703 58.0534 12.5891C51.4784 6.47853 38.6395 -3.76012 29.0062 1.64669C19.4134 7.03088 22.3716 22.6646 24.5957 31.2912C15.6473 33.7554 0.307617 39.0631 0.307617 49.9073C0.307617 60.7208 15.6313 66.4954 24.5268 68.9573C22.2945 77.6315 19.4844 93.0419 29.0894 98.4142C38.7588 103.82 51.5576 93.825 58.213 87.5854C64.8496 93.7938 77.2176 103.854 86.8161 98.4669C96.4446 93.0627 93.9369 77.3784 91.7126 68.7019C100.336 66.2346 115.692 60.5858 115.692 49.9073C115.692 39.1673 100.27 33.8165 91.463 31.3604ZM90.3699 64.1038C88.9096 59.6215 86.9384 54.855 84.5273 49.9311C86.8288 45.1235 88.7234 40.4185 90.143 35.965C96.5996 37.78 110.763 41.9281 110.763 49.9073C110.763 57.9615 97.1715 62.1488 90.3699 64.1038ZM84.3461 94.3308C77.1846 98.35 66.5465 88.7292 61.6453 84.1573C64.8969 80.7092 68.1461 76.7008 71.3173 72.2496C76.8957 71.77 82.1653 70.9854 86.9446 69.9142C88.5099 76.0515 91.5392 90.2934 84.3461 94.3308ZM31.5523 94.2735C24.39 90.2692 27.6637 76.5177 29.306 70.1281C34.032 71.1419 39.2638 71.8711 44.8553 72.3108C48.0472 76.6661 51.3907 80.6696 54.7599 84.1758C50.5972 88.08 38.748 98.2962 31.5523 94.2735ZM5.23643 49.9073C5.23643 41.8231 19.3156 37.705 25.9193 35.8946C27.3634 40.4481 29.2574 45.2092 31.5431 50.0238C29.2278 54.91 27.3067 59.7465 25.8494 64.3538C19.5526 62.6061 5.23643 57.9965 5.23643 49.9073ZM31.4757 5.78284C38.6672 1.74677 49.8257 11.5763 54.5996 16.0005C51.2476 19.4905 47.9349 23.4638 44.7703 27.7942C39.3438 28.2819 34.149 29.065 29.3734 30.1142C27.5817 23.1566 24.2919 9.81457 31.4757 5.78284ZM74.8434 32.9888C78.5249 33.4392 82.0523 34.0385 85.3642 34.7715C84.3699 37.8615 83.1307 41.0927 81.6711 44.405C79.5553 40.5127 77.2842 36.6985 74.8434 32.9888ZM58.0549 19.4158C60.3284 21.8037 62.6053 24.4704 64.8453 27.3635C60.3019 27.155 55.7511 27.1542 51.2076 27.3604C53.4496 24.4941 55.7461 21.8315 58.0549 19.4158ZM34.3711 44.4015C32.9357 41.1008 31.7076 37.8554 30.7046 34.7211C33.9968 34.0069 37.5076 33.4231 41.1653 32.98C38.7176 36.6815 36.4503 40.4942 34.3711 44.4015ZM41.2703 67.1758C37.4919 66.7669 33.9279 66.2127 30.6367 65.5181C31.6555 62.3288 32.9106 59.0135 34.3767 55.6415C36.4846 59.5896 38.7865 63.4392 41.2703 67.1758ZM58.1915 80.7365C55.8553 78.2923 53.5249 75.5888 51.2492 72.6811C55.8184 72.855 60.3965 72.8554 64.9653 72.6577C62.7184 75.6185 60.4496 78.3258 58.1915 80.7365ZM81.718 55.47C83.2603 58.8785 84.5603 62.1758 85.593 65.3111C82.2473 66.0515 78.6353 66.6477 74.8296 67.0904C77.2884 63.3104 79.5957 59.4369 81.718 55.47ZM68.5665 67.6696C61.5772 68.1538 54.5446 68.1485 47.553 67.7092C43.5803 62.0827 40.0438 56.1654 36.9911 50.0223C40.0292 43.8919 43.5399 37.9861 47.4938 32.3685C54.4903 31.8558 61.5299 31.8542 68.5265 32.3715C72.4465 37.9888 75.9519 43.8792 79.0603 49.9542C75.9888 56.0815 72.4596 61.9992 68.5665 67.6696ZM84.2703 5.64076C91.4638 9.66361 88.2619 23.951 86.6903 30.1638C81.9034 29.0927 76.7049 28.2958 71.2626 27.8004C68.0919 23.4232 64.8069 19.443 61.5092 15.998C66.3442 11.4785 77.1465 1.65726 84.2703 5.64076Z" fill="#53C1DE"/>
</svg>
