<svg width="118" height="100" viewBox="0 0 118 100" fill="none" xmlns="http://www.w3.org/2000/svg">
<path fill-rule="evenodd" clip-rule="evenodd" d="M112.969 77.0217C106.719 80.2795 74.3422 93.5918 67.4491 97.185C60.5564 100.779 56.7272 100.744 51.282 98.1412C45.8369 95.538 11.3818 81.6205 5.17541 78.654C2.07312 77.1713 0.442139 75.92 0.442139 74.7379V62.9001C0.442139 62.9001 45.298 53.1348 52.5397 50.5371C59.781 47.939 62.2935 47.8452 68.456 50.1025C74.619 52.3603 111.467 59.0086 117.558 61.2394C117.558 61.2394 117.555 71.8122 117.555 72.9097C117.556 74.08 116.151 75.3637 112.969 77.0217" fill="#912626"/>
<path fill-rule="evenodd" clip-rule="evenodd" d="M112.967 65.2541C106.717 68.5105 74.3413 81.8233 67.4484 85.4163C60.5559 89.0108 56.7268 88.9756 51.2818 86.3725C45.8364 83.7712 11.3829 69.8514 5.1767 66.8864C-1.02951 63.9197 -1.1599 61.8779 4.93698 59.4908C11.0334 57.1027 45.298 43.6596 52.5404 41.0615C59.7814 38.4644 62.2935 38.3697 68.4558 40.6278C74.6185 42.885 106.802 55.695 112.892 57.9253C118.983 60.1582 119.217 61.9964 112.967 65.2541" fill="#C6302B"/>
<path fill-rule="evenodd" clip-rule="evenodd" d="M112.969 57.8672C106.719 61.1251 74.3422 74.4373 67.4491 78.0319C60.5564 81.6246 56.7272 81.5899 51.282 78.9867C45.8364 76.3849 11.3818 62.466 5.17541 59.4996C2.07312 58.0168 0.442139 56.7669 0.442139 55.5848V43.7456C0.442139 43.7456 45.298 33.9808 52.5397 31.3827C59.781 28.785 62.2935 28.6908 68.456 30.9481C74.619 33.2058 111.467 39.8528 117.558 42.084C117.558 42.084 117.555 52.6568 117.555 53.7557C117.556 54.9255 116.151 56.2093 112.969 57.8672" fill="#912626"/>
<path fill-rule="evenodd" clip-rule="evenodd" d="M112.967 46.0996C106.717 49.3569 74.3413 62.6687 67.4484 66.2632C60.5559 69.8563 56.7268 69.821 51.2818 67.2179C45.8364 64.6167 11.3829 50.6973 5.1767 47.7319C-1.02951 44.7661 -1.1599 42.7238 4.93698 40.3358C11.0334 37.9491 45.298 24.505 52.5404 21.9075C59.7814 19.3099 62.2935 19.2156 68.4558 21.4733C74.6185 23.7305 106.802 36.5396 112.892 38.7707C118.983 41.0028 119.217 42.8419 112.967 46.0992V46.0996" fill="#C6302B"/>
<path fill-rule="evenodd" clip-rule="evenodd" d="M112.969 38.0027C106.719 41.2606 74.3422 54.5733 67.4491 58.1679C60.5564 61.7611 56.7272 61.7258 51.282 59.1227C45.8364 56.5209 11.3818 42.6015 5.17541 39.636C2.07312 38.1528 0.442139 36.9025 0.442139 35.7212V23.8816C0.442139 23.8816 45.298 14.1172 52.5397 11.5196C59.781 8.92143 62.2935 8.82765 68.456 11.0849C74.619 13.3427 111.467 19.9897 117.558 22.2209C117.558 22.2209 117.555 32.7937 117.555 33.8921C117.556 35.061 116.151 36.3448 112.969 38.0027" fill="#912626"/>
<path fill-rule="evenodd" clip-rule="evenodd" d="M112.967 26.2348C106.717 29.4921 74.3413 42.8048 67.4484 46.3984C60.5559 49.9915 56.7268 49.9562 51.2818 47.3541C45.8369 44.7519 11.3829 30.8334 5.1767 27.8676C-1.02951 24.9017 -1.1599 22.859 4.93698 20.4714C11.0334 18.0843 45.298 4.64161 52.5404 2.04311C59.7814 -0.554937 62.2935 -0.648263 68.4558 1.60942C74.6185 3.86709 106.802 16.6762 112.892 18.9073C118.983 21.138 119.217 22.9775 112.967 26.2348" fill="#C6302B"/>
<path fill-rule="evenodd" clip-rule="evenodd" d="M73.3116 14.7191L63.2428 15.7645L60.9885 21.1882L57.3475 15.1358L45.7208 14.0909L54.3965 10.9623L51.7936 6.15967L59.9159 9.33632L67.5734 6.82923L65.5039 11.7953L73.3116 14.7191" fill="white"/>
<path fill-rule="evenodd" clip-rule="evenodd" d="M60.3869 41.0322L41.5948 33.2381L68.5229 29.105L60.3869 41.0322" fill="white"/>
<path fill-rule="evenodd" clip-rule="evenodd" d="M34.3333 17.7334C42.2822 17.7334 48.7259 20.2314 48.7259 23.3123C48.7259 26.3936 42.2822 28.8912 34.3333 28.8912C26.3849 28.8912 19.9408 26.3936 19.9408 23.3123C19.9408 20.2314 26.3849 17.7334 34.3333 17.7334" fill="white"/>
<path fill-rule="evenodd" clip-rule="evenodd" d="M85.2114 16.2017L101.148 22.4996L85.225 28.7912L85.2114 16.2017" fill="#621B1C"/>
<path fill-rule="evenodd" clip-rule="evenodd" d="M67.5801 23.1759L85.2114 16.2017L85.2251 28.7912L83.4965 29.4675L67.5801 23.1759" fill="#9A2928"/>
</svg>
