<svg width="84" height="100" viewBox="0 0 84 100" fill="none" xmlns="http://www.w3.org/2000/svg">
<path fill-rule="evenodd" clip-rule="evenodd" d="M83.6652 10.51C83.6959 10.3516 83.7114 10.1922 83.7114 10.0319C83.7114 4.49142 65.1754 0 42.31 0C19.4447 0 0.908691 4.49142 0.908691 10.0319C0.908691 10.1922 0.924206 10.3516 0.954891 10.51H0.908691V89.0127V89.1726H0.912985C1.23515 95.167 19.6459 100 42.31 100C64.9742 100 83.3849 95.167 83.7071 89.1726H83.7114V89.0127V10.51H83.6652Z" fill="#E0234E"/>
<path d="M18.4938 64.621C17.3298 64.621 16.2258 64.531 15.1818 64.351C14.1498 64.183 13.2618 63.979 12.5178 63.739C11.7738 63.499 11.2398 63.277 10.9158 63.073L11.7978 59.635C12.2538 59.899 12.8238 60.157 13.5078 60.409C14.1918 60.661 14.9418 60.871 15.7578 61.039C16.5738 61.195 17.4018 61.273 18.2418 61.273C19.8858 61.273 21.1398 60.997 22.0038 60.445C22.8678 59.893 23.2998 58.993 23.2998 57.745C23.2998 56.905 23.0838 56.203 22.6518 55.639C22.2198 55.063 21.5718 54.523 20.7078 54.019C19.8558 53.515 18.7878 52.957 17.5038 52.345C16.4118 51.805 15.3498 51.157 14.3178 50.401C13.2978 49.645 12.4578 48.757 11.7978 47.737C11.1378 46.717 10.8078 45.547 10.8078 44.227C10.8078 42.931 11.0598 41.845 11.5638 40.969C12.0798 40.081 12.7698 39.367 13.6338 38.827C14.4978 38.287 15.4578 37.897 16.5138 37.657C17.5818 37.417 18.6738 37.297 19.7898 37.297C21.4218 37.297 22.7718 37.459 23.8398 37.783C24.9078 38.095 25.6758 38.407 26.1438 38.719L25.3158 42.049C24.7038 41.665 23.9838 41.323 23.1558 41.023C22.3398 40.711 21.2178 40.555 19.7898 40.555C18.9138 40.555 18.1038 40.669 17.3598 40.897C16.6158 41.125 16.0158 41.473 15.5598 41.941C15.1038 42.409 14.8758 43.009 14.8758 43.741C14.8758 44.569 15.0438 45.265 15.3798 45.829C15.7278 46.381 16.2858 46.903 17.0538 47.395C17.8218 47.875 18.8298 48.439 20.0778 49.087C20.9778 49.555 21.8658 50.053 22.7418 50.581C23.6178 51.097 24.4098 51.673 25.1178 52.309C25.8378 52.945 26.4078 53.677 26.8278 54.505C27.2598 55.321 27.4758 56.257 27.4758 57.313C27.4758 58.945 27.0918 60.307 26.3238 61.399C25.5678 62.479 24.5118 63.289 23.1558 63.829C21.8118 64.357 20.2578 64.621 18.4938 64.621ZM50.4772 69.607C49.0852 69.607 47.9092 69.445 46.9492 69.121C45.9892 68.809 45.1072 68.233 44.3032 67.393C43.5112 66.565 42.6532 65.377 41.7292 63.829L43.6372 63.145H45.4912C45.9112 63.913 46.3312 64.519 46.7512 64.963C47.1712 65.419 47.6752 65.743 48.2632 65.935C48.8632 66.127 49.6372 66.223 50.5852 66.223C51.0412 66.223 51.4792 66.199 51.8992 66.151C52.3312 66.103 52.7512 66.007 53.1592 65.863V68.869C52.8952 69.049 52.5592 69.217 52.1512 69.373C51.7432 69.529 51.1852 69.607 50.4772 69.607ZM42.5752 64.621C40.0912 64.669 37.9432 64.105 36.1312 62.929C34.3192 61.741 32.9332 60.097 31.9732 57.997C31.0132 55.885 30.5632 53.473 30.6232 50.761C30.6832 47.773 31.2712 45.283 32.3872 43.291C33.5152 41.299 35.0092 39.805 36.8692 38.809C38.7412 37.813 40.8232 37.309 43.1152 37.297C45.4912 37.285 47.5612 37.843 49.3252 38.971C51.0892 40.087 52.4452 41.671 53.3932 43.723C54.3532 45.775 54.8032 48.181 54.7432 50.941C54.6832 53.929 54.1192 56.431 53.0512 58.447C51.9832 60.451 50.5432 61.969 48.7312 63.001C46.9192 64.033 44.8672 64.573 42.5752 64.621ZM42.6832 61.381C45.0592 61.381 46.9492 60.487 48.3532 58.699C49.7572 56.899 50.4592 54.253 50.4592 50.761C50.4592 48.913 50.1772 47.215 49.6132 45.667C49.0612 44.107 48.2272 42.859 47.1112 41.923C46.0072 40.975 44.6272 40.501 42.9712 40.501C41.5192 40.501 40.1812 40.873 38.9572 41.617C37.7332 42.361 36.7492 43.507 36.0052 45.055C35.2732 46.603 34.9072 48.589 34.9072 51.013C34.9072 52.849 35.1952 54.559 35.7712 56.143C36.3592 57.715 37.2292 58.981 38.3812 59.941C39.5332 60.901 40.9672 61.381 42.6832 61.381ZM59.7672 64.333V37.585H63.9792V60.985H74.4912V64.333H59.7672Z" fill="white"/>
</svg>
