<svg width="32" height="26" viewBox="0 0 32 26" fill="none" xmlns="http://www.w3.org/2000/svg">
<path d="M19.6388 0.259972C18.7887 0.0149719 17.9038 0.509972 17.6588 1.35997L11.2587 23.76C11.0138 24.61 11.5087 25.495 12.3588 25.74C13.2088 25.985 14.0938 25.49 14.3387 24.64L20.7388 2.23997C20.9837 1.38997 20.4888 0.504972 19.6388 0.259972ZM23.6688 6.26497C23.0438 6.88997 23.0438 7.90497 23.6688 8.52997L28.1337 13L23.6637 17.47C23.0387 18.095 23.0387 19.11 23.6637 19.735C24.2887 20.36 25.3037 20.36 25.9287 19.735L31.5287 14.135C32.1537 13.51 32.1537 12.495 31.5287 11.87L25.9287 6.26997C25.3037 5.64497 24.2887 5.64497 23.6637 6.26997L23.6688 6.26497ZM8.33375 6.26497C7.70875 5.63997 6.69375 5.63997 6.06875 6.26497L0.46875 11.865C-0.15625 12.49 -0.15625 13.505 0.46875 14.13L6.06875 19.73C6.69375 20.355 7.70875 20.355 8.33375 19.73C8.95875 19.105 8.95875 18.09 8.33375 17.465L3.86375 13L8.33375 8.52997C8.95875 7.90497 8.95875 6.88997 8.33375 6.26497Z" fill="white"/>
</svg>
