<svg width="168" height="100" viewBox="0 0 168 100" fill="none" xmlns="http://www.w3.org/2000/svg">
<path d="M41.9604 33.3333C47.5314 11.1111 61.4588 0 83.7428 0C117.169 0 121.347 25 138.06 29.1667C149.202 31.9444 158.951 27.7778 167.308 16.6667C161.737 38.8889 147.809 50 125.525 50C92.0993 50 87.921 25 71.2081 20.8333C60.0661 18.0556 50.3169 22.2222 41.9604 33.3333ZM0.177979 83.3333C5.74897 61.1111 19.6764 50 41.9604 50C75.3863 50 79.5646 75 96.2775 79.1667C107.419 81.9444 117.169 77.7778 125.525 66.6667C119.954 88.8889 106.027 100 83.7428 100C50.3169 100 46.1386 75 29.4257 70.8333C18.2837 68.0556 8.53446 72.2222 0.177979 83.3333Z" fill="#44A8B3"/>
</svg>
