<svg width="496" height="513" viewBox="0 0 496 513" fill="none" xmlns="http://www.w3.org/2000/svg">
<path fill-rule="evenodd" clip-rule="evenodd" d="M247.999 0C388.016 0 496 118.389 496 256.07C496 393.767 388.033 512.141 247.999 512.141C107.959 512.141 0 393.771 0 256.07C0 118.358 107.931 0 247.999 0ZM301.656 320.057C304.682 326.138 308.524 332.309 312.912 337.488C325.338 352.164 340.418 353.493 358.715 357.032C385.038 362.116 410.952 381.653 422.996 406.846C456.165 365.451 475.798 312.489 475.798 256.07C475.798 129.483 376.974 20.202 247.999 20.202C118.282 20.202 20.202 130.185 20.202 256.07C20.202 312.306 39.704 365.106 72.672 406.44C85.088 379.259 113.084 363.081 141.301 359.307C161.263 356.64 175.531 356.113 185.57 337.261C188.555 331.656 190.828 325.308 192.649 319.383C184.316 311.321 177.908 302.277 175.881 286.53C173.395 286.274 170.99 285.505 168.818 284.27C159.723 279.103 156.295 266.77 155.793 256.982C155.27 246.716 155.856 233.812 164.705 229.937C163.039 206.257 168.058 166.421 142.84 158.796C191.215 99.017 246.974 66.503 288.843 119.681C337.35 122.229 355.897 197.188 321.412 232.964L321.4 233.082C329.453 232.357 336.785 235.856 339.375 243.895C342.512 253.632 335.964 266.864 332.783 275.879C331.57 279.311 330.427 281.762 327.694 283.934C325.247 285.902 322.473 286.78 318.57 286.793C317.446 301.994 310.818 310.931 301.656 320.057ZM295.495 325.969C302.116 338.53 311.832 350.994 322.683 355.485C280.041 386.772 221.17 384.964 177.312 358.226C188.56 352.168 195.054 338.238 199.309 325.411C201.662 327.444 204.014 329.471 206.339 331.536C220.37 344.018 234.21 350.534 248.282 350.668C262.466 350.803 276.207 344.474 289.895 331.267L295.495 325.969ZM164.321 243.653C167.047 235.85 172.752 236.541 180.809 239.267C183.918 240.887 183.435 240.189 186.291 241.229C182.088 222.174 191.49 201.33 208.242 191.521C220.433 185.553 235.755 185.946 251.337 181.926C262.466 179.057 273.731 173.936 284.088 162.642C296.938 168.969 306.984 179.166 311.981 196.74C314.813 208.782 315.042 224.598 311.412 245.777C321.38 238.225 335.755 238.927 331.233 255.659L325.056 273.153C323.58 277.339 322.592 278.854 317.3 278.574C314.966 278.45 312.613 277.549 310.269 275.999C312.433 301.811 299.9 310.236 284.22 325.369C260.068 348.675 236.856 347.713 211.788 325.413C197.106 312.353 184.06 304.417 183.41 277.564C179.601 278.73 175.999 278.942 172.857 277.154C166.593 273.592 164.308 263.212 163.968 256.566C163.831 253.897 163.945 246.375 164.321 243.653Z" fill="#ffffff"/>
</svg>
