<svg width="27" height="21" viewBox="0 0 27 21" fill="none" xmlns="http://www.w3.org/2000/svg">
<path d="M26.1615 7.10417C26.3646 6.94271 26.6667 7.09375 26.6667 7.34896V18C26.6667 19.3802 25.5469 20.5 24.1667 20.5H2.5C1.11979 20.5 0 19.3802 0 18V7.35417C0 7.09375 0.296875 6.94792 0.505208 7.10937C1.67188 8.01562 3.21875 9.16667 8.53125 13.026C9.63021 13.8281 11.4844 15.5156 13.3333 15.5052C15.1927 15.5208 17.0833 13.7969 18.1406 13.026C23.4531 9.16667 24.9948 8.01042 26.1615 7.10417ZM13.3333 13.8333C14.5417 13.8542 16.2812 12.3125 17.1562 11.6771C24.0677 6.66146 24.5937 6.22396 26.1875 4.97396C26.4896 4.73958 26.6667 4.375 26.6667 3.98958V3C26.6667 1.61979 25.5469 0.5 24.1667 0.5H2.5C1.11979 0.5 0 1.61979 0 3V3.98958C0 4.375 0.177083 4.73437 0.479167 4.97396C2.07292 6.21875 2.59896 6.66146 9.51042 11.6771C10.3854 12.3125 12.125 13.8542 13.3333 13.8333Z" fill="white"/>
</svg>
