<svg width="24" height="25" viewBox="0 0 24 25" fill="none" xmlns="http://www.w3.org/2000/svg">
<path d="M23.9466 1.52859C24.0012 1.39229 24.0145 1.24298 23.985 1.09917C23.9555 0.955352 23.8845 0.823358 23.7807 0.719548C23.6769 0.615738 23.5449 0.544678 23.4011 0.515177C23.2572 0.485676 23.1079 0.499031 22.9716 0.553587L1.15114 9.28209H1.14964L0.471636 9.55209C0.343222 9.60331 0.231465 9.68903 0.14871 9.79978C0.0659551 9.91053 0.0154234 10.042 0.00269655 10.1797C-0.0100303 10.3173 0.0155431 10.4558 0.0765918 10.5799C0.137641 10.7039 0.231789 10.8087 0.348636 10.8826L0.963636 11.2726L0.965136 11.2756L8.45764 16.0426L13.2246 23.5351L13.2276 23.5381L13.6176 24.1531C13.6918 24.2695 13.7966 24.3632 13.9205 24.4238C14.0445 24.4845 14.1828 24.5098 14.3202 24.4969C14.4576 24.484 14.5888 24.4335 14.6993 24.3509C14.8098 24.2682 14.8954 24.1567 14.9466 24.0286L23.9466 1.52859ZM21.1971 4.36359L9.95614 15.6046L9.63364 15.0976C9.57454 15.0045 9.49567 14.9257 9.40264 14.8666L8.89564 14.5441L20.1366 3.30309L21.9036 2.59659L21.1986 4.36359H21.1971Z" fill="white"/>
</svg>
